<svg xmlns="http://www.w3.org/2000/svg" width="760" height="220" viewBox="0 0 760 220" font-family="system-ui,-apple-system,'Segoe UI',Roboto,sans-serif">
  <rect x="1" y="1" width="758" height="218" rx="12" fill="#ffffff" stroke="#e2e8f0"/>
  <defs>
    <marker id="ah2" markerWidth="8" markerHeight="8" refX="7" refY="4" orient="auto">
      <path d="M0,0 L8,4 L0,8" fill="none" stroke="#334155" stroke-width="1.6"/>
    </marker>
  </defs>
  <rect x="20" y="60" width="130" height="52" rx="26" fill="#dbeafe" stroke="#2563eb" stroke-width="1.5"/>
  <text x="85" y="82" text-anchor="middle" font-size="12.5" fill="#1e3a8a">order</text>
  <text x="85" y="98" text-anchor="middle" font-size="12.5" fill="#1e3a8a">created</text>
  <rect x="196" y="60" width="130" height="52" rx="8" fill="#ffedd5" stroke="#ea580c" stroke-width="1.5"/>
  <text x="261" y="90" text-anchor="middle" font-size="12.5" font-weight="600" fill="#7c2d12">preparing</text>
  <rect x="372" y="60" width="130" height="52" rx="8" fill="#dcfce7" stroke="#16a34a" stroke-width="1.5"/>
  <text x="437" y="90" text-anchor="middle" font-size="12.5" font-weight="600" fill="#14532d">delivered</text>
  <rect x="560" y="60" width="130" height="52" rx="26" fill="#f1f5f9" stroke="#64748b" stroke-width="1.5"/>
  <text x="625" y="90" text-anchor="middle" font-size="12.5" font-weight="600" fill="#334155">deleted</text>
  <text x="173" y="48" text-anchor="middle" font-size="11.5" fill="#1f2937">deliver (TTL starts)</text>
  <line x1="150" y1="86" x2="188" y2="86" stroke="#334155" stroke-width="1.8" marker-end="url(#ah2)"/>
  <line x1="326" y1="86" x2="364" y2="86" stroke="#334155" stroke-width="1.8" marker-end="url(#ah2)"/>
  <line x1="502" y1="86" x2="552" y2="86" stroke="#334155" stroke-width="1.8" marker-end="url(#ah2)"/>
  <text x="527" y="140" text-anchor="middle" font-size="11.5" fill="#1f2937">receipt confirmed · closed by owner / courier</text>
  <text x="527" y="156" text-anchor="middle" font-size="11.5" fill="#1f2937">· TTL expired (cleanup sweep)</text>
  <text x="380" y="192" text-anchor="middle" font-size="11.5" fill="#64748b">Every transition is a conditional UPDATE / row-locked transaction — concurrent or replayed requests are harmless no-ops.</text>
</svg>
